<?xml version="1.0" encoding="UTF-8" standalone="no"?>
<svg
   xmlns:dc="http://purl.org/dc/elements/1.1/"
   xmlns:cc="http://creativecommons.org/ns#"
   xmlns:rdf="http://www.w3.org/1999/02/22-rdf-syntax-ns#"
   xmlns:svg="http://www.w3.org/2000/svg"
   xmlns="http://www.w3.org/2000/svg"
   xmlns:sodipodi="http://sodipodi.sourceforge.net/DTD/sodipodi-0.dtd"
   xmlns:inkscape="http://www.inkscape.org/namespaces/inkscape"
   inkscape:export-ydpi="576"
   inkscape:export-xdpi="576"
   inkscape:export-filename="E:\Filedline\1 - Pizza.png"
   width="64pt"
   height="64pt"
   viewBox="0 0 22.577778 22.577778"
   version="1.1"
   id="svg831"
   inkscape:version="1.0 (4035a4fb49, 2020-05-01)"
   sodipodi:docname="EXPORT 64px.svg">
  <defs
     id="defs825">
    <pattern
       id="EMFhbasepattern"
       patternUnits="userSpaceOnUse"
       width="6"
       height="6"
       x="0"
       y="0" />
    <pattern
       id="EMFhbasepattern-9"
       patternUnits="userSpaceOnUse"
       width="6"
       height="6"
       x="0"
       y="0" />
    <pattern
       id="EMFhbasepattern-0"
       patternUnits="userSpaceOnUse"
       width="6"
       height="6"
       x="0"
       y="0" />
    <pattern
       id="EMFhbasepattern-7"
       patternUnits="userSpaceOnUse"
       width="6"
       height="6"
       x="0"
       y="0" />
    <pattern
       id="EMFhbasepattern-2"
       patternUnits="userSpaceOnUse"
       width="6"
       height="6"
       x="0"
       y="0" />
    <pattern
       id="EMFhbasepattern-98"
       patternUnits="userSpaceOnUse"
       width="6"
       height="6"
       x="0"
       y="0" />
    <pattern
       id="EMFhbasepattern-6"
       patternUnits="userSpaceOnUse"
       width="6"
       height="6"
       x="0"
       y="0" />
    <pattern
       id="EMFhbasepattern-01"
       patternUnits="userSpaceOnUse"
       width="6"
       height="6"
       x="0"
       y="0" />
    <pattern
       id="EMFhbasepattern-07"
       patternUnits="userSpaceOnUse"
       width="6"
       height="6"
       x="0"
       y="0" />
    <pattern
       id="EMFhbasepattern-8"
       patternUnits="userSpaceOnUse"
       width="6"
       height="6"
       x="0"
       y="0" />
    <pattern
       id="EMFhbasepattern-4"
       patternUnits="userSpaceOnUse"
       width="6"
       height="6"
       x="0"
       y="0" />
    <pattern
       id="EMFhbasepattern-40"
       patternUnits="userSpaceOnUse"
       width="6"
       height="6"
       x="0"
       y="0" />
    <pattern
       id="EMFhbasepattern-08"
       patternUnits="userSpaceOnUse"
       width="6"
       height="6"
       x="0"
       y="0" />
    <pattern
       id="EMFhbasepattern-04"
       patternUnits="userSpaceOnUse"
       width="6"
       height="6"
       x="0"
       y="0" />
    <pattern
       id="EMFhbasepattern-014"
       patternUnits="userSpaceOnUse"
       width="6"
       height="6"
       x="0"
       y="0" />
    <pattern
       id="EMFhbasepattern-27"
       patternUnits="userSpaceOnUse"
       width="6"
       height="6"
       x="0"
       y="0" />
    <pattern
       id="EMFhbasepattern-09"
       patternUnits="userSpaceOnUse"
       width="6"
       height="6"
       x="0"
       y="0" />
    <pattern
       id="EMFhbasepattern-5"
       patternUnits="userSpaceOnUse"
       width="6"
       height="6"
       x="0"
       y="0" />
    <pattern
       id="EMFhbasepattern-018"
       patternUnits="userSpaceOnUse"
       width="6"
       height="6"
       x="0"
       y="0" />
  </defs>
  <sodipodi:namedview
     id="base"
     pagecolor="#ffffff"
     bordercolor="#666666"
     borderopacity="1.0"
     inkscape:pageopacity="0.0"
     inkscape:pageshadow="2"
     inkscape:zoom="3.3909162"
     inkscape:cx="9.805947"
     inkscape:cy="23.142722"
     inkscape:document-units="pt"
     inkscape:current-layer="g1692"
     showgrid="false"
     units="pt"
     inkscape:window-width="1366"
     inkscape:window-height="715"
     inkscape:window-x="-8"
     inkscape:window-y="-8"
     inkscape:window-maximized="1"
     inkscape:pagecheckerboard="true"
     inkscape:showpageshadow="false"
     inkscape:object-paths="true"
     inkscape:snap-intersection-paths="true"
     inkscape:snap-smooth-nodes="true"
     inkscape:snap-midpoints="true"
     showguides="true"
     inkscape:snap-bbox="true"
     inkscape:bbox-nodes="true"
     inkscape:snap-nodes="false"
     inkscape:snap-global="true"
     inkscape:document-rotation="0">
    <inkscape:grid
       type="xygrid"
       id="grid1378" />
    <sodipodi:guide
       position="0.97013831,21.607643"
       orientation="78.000048,0"
       id="guide1380"
       inkscape:locked="false" />
    <sodipodi:guide
       position="0.97013831,0.97013129"
       orientation="0,78.000005"
       id="guide1382"
       inkscape:locked="false" />
    <sodipodi:guide
       position="21.607639,0.97013129"
       orientation="-78.000048,0"
       id="guide1384"
       inkscape:locked="false" />
    <sodipodi:guide
       position="21.607639,21.607643"
       orientation="0,-78.000005"
       id="guide1386"
       inkscape:locked="false" />
  </sodipodi:namedview>
  <metadata
     id="metadata828">
    <rdf:RDF>
      <cc:Work
         rdf:about="">
        <dc:format>image/svg+xml</dc:format>
        <dc:type
           rdf:resource="http://purl.org/dc/dcmitype/StillImage" />
        <dc:title></dc:title>
      </cc:Work>
    </rdf:RDF>
  </metadata>
  <g
     inkscape:label="Icon"
     inkscape:groupmode="layer"
     id="layer1"
     transform="translate(0,-274.42223)">
    <g
       transform="matrix(1.2578954,0,0,1.2578954,0.63862052,-77.233473)"
       style="display:inline"
       id="g1692">
      <g
         transform="matrix(1.0212308,0,0,1.0212308,62.161786,25.036915)"
         style="display:inline"
         id="g811">
        <path
           d="m -56.454954,259.42606 -10e-4,1.40818 7.348905,3.41839 c 0.06774,-0.43169 0.244636,-0.86428 0.358115,-1.24591 z"
           style="color:#000000;font-style:normal;font-variant:normal;font-weight:normal;font-stretch:normal;font-size:medium;line-height:normal;font-family:sans-serif;font-variant-ligatures:normal;font-variant-position:normal;font-variant-caps:normal;font-variant-numeric:normal;font-variant-alternates:normal;font-variant-east-asian:normal;font-feature-settings:normal;font-variation-settings:normal;text-indent:0;text-align:start;text-decoration:none;text-decoration-line:none;text-decoration-style:solid;text-decoration-color:#000000;letter-spacing:normal;word-spacing:normal;text-transform:none;writing-mode:lr-tb;direction:ltr;text-orientation:mixed;dominant-baseline:auto;baseline-shift:baseline;text-anchor:start;white-space:normal;shape-padding:0;shape-margin:0;inline-size:0;clip-rule:nonzero;display:inline;overflow:visible;visibility:visible;isolation:auto;mix-blend-mode:normal;color-interpolation:sRGB;color-interpolation-filters:linearRGB;solid-color:#000000;solid-opacity:1;vector-effect:none;fill:#ca7d02;fill-opacity:1;fill-rule:nonzero;stroke:none;stroke-width:0.529167;stroke-linecap:round;stroke-linejoin:round;stroke-miterlimit:4;stroke-dasharray:none;stroke-dashoffset:0;stroke-opacity:1;color-rendering:auto;image-rendering:auto;shape-rendering:auto;text-rendering:auto;enable-background:accumulate;stop-color:#000000"
           id="path620"
           sodipodi:nodetypes="ccccc" />
        <path
           d="m -49.10708,251.80792 -10.238653,4.75837 c -0.774702,0.43392 -1.273171,1.05731 -1.265589,1.9708 v 1.50586 c 0,0.64354 0.528492,1.16995 1.172022,1.16995 0.249372,0 0.449709,-0.13117 0.64027,-0.26562 v 0.90796 c 0,0.64354 0.528487,1.16995 1.172023,1.16995 0.643532,0 1.169953,-0.52641 1.169953,-1.16995 l 0.0021,-2.42931 7.70599,3.58118 c 0.486891,-1.64103 0.731224,-3.30782 0.731221,-4.97593 3e-6,-1.94695 -0.330052,-3.8947 -0.993735,-5.79913 -0.04594,-0.13183 -0.07562,-0.27613 -0.0956,-0.42426 z"
           style="color:#000000;font-style:normal;font-variant:normal;font-weight:normal;font-stretch:normal;font-size:medium;line-height:normal;font-family:sans-serif;font-variant-ligatures:normal;font-variant-position:normal;font-variant-caps:normal;font-variant-numeric:normal;font-variant-alternates:normal;font-variant-east-asian:normal;font-feature-settings:normal;font-variation-settings:normal;text-indent:0;text-align:start;text-decoration:none;text-decoration-line:none;text-decoration-style:solid;text-decoration-color:#000000;letter-spacing:normal;word-spacing:normal;text-transform:none;writing-mode:lr-tb;direction:ltr;text-orientation:mixed;dominant-baseline:auto;baseline-shift:baseline;text-anchor:start;white-space:normal;shape-padding:0;shape-margin:0;inline-size:0;clip-rule:nonzero;display:inline;overflow:visible;visibility:visible;isolation:auto;mix-blend-mode:normal;color-interpolation:sRGB;color-interpolation-filters:linearRGB;solid-color:#000000;solid-opacity:1;vector-effect:none;fill:#fca311;fill-opacity:1;fill-rule:nonzero;stroke:none;stroke-width:0.529167;stroke-linecap:round;stroke-linejoin:round;stroke-miterlimit:4;stroke-dasharray:none;stroke-dashoffset:0;stroke-opacity:1;color-rendering:auto;image-rendering:auto;shape-rendering:auto;text-rendering:auto;enable-background:accumulate;stop-color:#000000"
           id="path563"
           sodipodi:nodetypes="cccsscsscccsscc" />
        <path
           sodipodi:nodetypes="cccccccccc"
           d="m -48.9415,252.09392 -10.404233,4.47237 c -0.422062,0.19308 -0.853004,0.56904 -1.07697,1.06853 2.298785,-1.07172 4.603855,-2.14128 6.90548,-3.21095 1.851133,-0.8603 3.824651,0.034 4.174747,2.04439 0.15908,0.91351 0.261055,1.80116 0.266362,2.62129 2e-6,1.20018 -0.130902,2.39836 -0.383203,3.58807 l 0.710315,0.32952 c 0.486891,-1.64103 0.731226,-3.30782 0.731221,-4.97593 0.01586,-2.33508 -0.248941,-3.9452 -0.923719,-5.93729 z"
           style="color:#000000;font-style:normal;font-variant:normal;font-weight:normal;font-stretch:normal;font-size:medium;line-height:normal;font-family:sans-serif;font-variant-ligatures:normal;font-variant-position:normal;font-variant-caps:normal;font-variant-numeric:normal;font-variant-alternates:normal;font-variant-east-asian:normal;font-feature-settings:normal;font-variation-settings:normal;text-indent:0;text-align:start;text-decoration:none;text-decoration-line:none;text-decoration-style:solid;text-decoration-color:#000000;letter-spacing:normal;word-spacing:normal;text-transform:none;writing-mode:lr-tb;direction:ltr;text-orientation:mixed;dominant-baseline:auto;baseline-shift:baseline;text-anchor:start;white-space:normal;shape-padding:0;shape-margin:0;inline-size:0;clip-rule:nonzero;display:inline;overflow:visible;visibility:visible;isolation:auto;mix-blend-mode:normal;color-interpolation:sRGB;color-interpolation-filters:linearRGB;solid-color:#000000;solid-opacity:1;vector-effect:none;fill:#db8d11;fill-opacity:1;fill-rule:nonzero;stroke:none;stroke-width:0.529167;stroke-linecap:round;stroke-linejoin:round;stroke-miterlimit:4;stroke-dasharray:none;stroke-dashoffset:0;stroke-opacity:1;color-rendering:auto;image-rendering:auto;shape-rendering:auto;text-rendering:auto;enable-background:accumulate;stop-color:#000000"
           id="path709" />
        <path
           id="path526"
           style="color:#000000;font-style:normal;font-variant:normal;font-weight:normal;font-stretch:normal;font-size:medium;line-height:normal;font-family:sans-serif;font-variant-ligatures:normal;font-variant-position:normal;font-variant-caps:normal;font-variant-numeric:normal;font-variant-alternates:normal;font-variant-east-asian:normal;font-feature-settings:normal;font-variation-settings:normal;text-indent:0;text-align:start;text-decoration:none;text-decoration-line:none;text-decoration-style:solid;text-decoration-color:#000000;letter-spacing:normal;word-spacing:normal;text-transform:none;writing-mode:lr-tb;direction:ltr;text-orientation:mixed;dominant-baseline:auto;baseline-shift:baseline;text-anchor:start;white-space:normal;shape-padding:0;shape-margin:0;inline-size:0;clip-rule:nonzero;display:inline;overflow:visible;visibility:visible;isolation:auto;mix-blend-mode:normal;color-interpolation:sRGB;color-interpolation-filters:linearRGB;solid-color:#000000;solid-opacity:1;vector-effect:none;fill:#ba7302;fill-opacity:1;fill-rule:nonzero;stroke:none;stroke-width:0.529167;stroke-linecap:round;stroke-linejoin:round;stroke-miterlimit:4;stroke-dasharray:none;stroke-dashoffset:0;stroke-opacity:1;color-rendering:auto;image-rendering:auto;shape-rendering:auto;text-rendering:auto;enable-background:accumulate;stop-color:#000000"
           d="m -49.458997,262.67702 c -0.03888,0.31678 -0.21045,0.96845 -0.307991,1.26866 l 0.659908,0.30696 c 0.133891,-0.39862 0.310779,-0.83948 0.358114,-1.24592 z"
           sodipodi:nodetypes="ccccc" />
        <path
           id="path641"
           d="m -48.306168,250.28529 c -0.416122,0.13081 -0.71296,0.38216 -0.787582,0.7772 -0.07462,0.39504 -0.03948,0.82127 0.08203,1.16992 0.663684,1.90443 0.994142,3.85188 0.994141,5.79883 10e-7,1.94697 -0.330458,3.89246 -0.994141,5.79687 -0.213898,0.74416 -0.289775,1.76817 0.615236,2.09766 2.084642,0.40293 2.076907,-0.6123 2.52064,-1.7514 0.400823,-1.47358 1.077876,-3.76622 1.077875,-6.14311 1e-6,-2.37687 -0.478613,-4.75416 -1.435547,-7.05078 -0.462226,-0.98314 -1.306759,-0.91079 -2.072652,-0.69519 z"
           style="color:#000000;font-style:normal;font-variant:normal;font-weight:normal;font-stretch:normal;font-size:medium;line-height:normal;font-family:sans-serif;font-variant-ligatures:normal;font-variant-position:normal;font-variant-caps:normal;font-variant-numeric:normal;font-variant-alternates:normal;font-variant-east-asian:normal;font-feature-settings:normal;font-variation-settings:normal;text-indent:0;text-align:start;text-decoration:none;text-decoration-line:none;text-decoration-style:solid;text-decoration-color:#000000;letter-spacing:normal;word-spacing:normal;text-transform:none;writing-mode:lr-tb;direction:ltr;text-orientation:mixed;dominant-baseline:auto;baseline-shift:baseline;text-anchor:start;white-space:normal;shape-padding:0;shape-margin:0;inline-size:0;clip-rule:nonzero;display:inline;overflow:visible;visibility:visible;isolation:auto;mix-blend-mode:normal;color-interpolation:sRGB;color-interpolation-filters:linearRGB;solid-color:#000000;solid-opacity:1;vector-effect:none;fill:#e05e10;fill-opacity:1;fill-rule:nonzero;stroke:none;stroke-width:0.529167;stroke-linecap:round;stroke-linejoin:round;stroke-miterlimit:4;stroke-dasharray:none;stroke-dashoffset:0;stroke-opacity:1;color-rendering:auto;image-rendering:auto;shape-rendering:auto;text-rendering:auto;enable-background:accumulate;stop-color:#000000"
           sodipodi:nodetypes="cscscccscc" />
        <path
           id="path550"
           d="m -54.039062,256.11523 a 0.26460996,0.26460996 0 0 0 -0.01172,-0.0762 z"
           style="color:#000000;font-style:normal;font-variant:normal;font-weight:normal;font-stretch:normal;font-size:medium;line-height:normal;font-family:sans-serif;font-variant-ligatures:normal;font-variant-position:normal;font-variant-caps:normal;font-variant-numeric:normal;font-variant-alternates:normal;font-variant-east-asian:normal;font-feature-settings:normal;font-variation-settings:normal;text-indent:0;text-align:start;text-decoration:none;text-decoration-line:none;text-decoration-style:solid;text-decoration-color:#000000;letter-spacing:normal;word-spacing:normal;text-transform:none;writing-mode:lr-tb;direction:ltr;text-orientation:mixed;dominant-baseline:auto;baseline-shift:baseline;text-anchor:start;white-space:normal;shape-padding:0;shape-margin:0;inline-size:0;clip-rule:nonzero;display:inline;overflow:visible;visibility:visible;isolation:auto;mix-blend-mode:normal;color-interpolation:sRGB;color-interpolation-filters:linearRGB;solid-color:#000000;solid-opacity:1;vector-effect:none;fill:#c00f0c;fill-opacity:1;fill-rule:nonzero;stroke:none;stroke-width:0.529167;stroke-linecap:round;stroke-linejoin:round;stroke-miterlimit:4;stroke-dasharray:none;stroke-dashoffset:0;stroke-opacity:1;color-rendering:auto;image-rendering:auto;shape-rendering:auto;text-rendering:auto;enable-background:accumulate;stop-color:#000000" />
        <path
           d="m -54.82973,254.46771 -3.370337,1.56631 c -0.0061,1.17904 0.852941,2.123 2.083093,2.15956 1.144082,0 2.077908,-0.93434 2.077908,-2.07843 -0.01482,-0.64332 -0.295252,-1.22316 -0.790664,-1.64744 z"
           style="color:#000000;font-style:normal;font-variant:normal;font-weight:normal;font-stretch:normal;font-size:medium;line-height:normal;font-family:sans-serif;font-variant-ligatures:normal;font-variant-position:normal;font-variant-caps:normal;font-variant-numeric:normal;font-variant-alternates:normal;font-variant-east-asian:normal;font-feature-settings:normal;font-variation-settings:normal;text-indent:0;text-align:start;text-decoration:none;text-decoration-line:none;text-decoration-style:solid;text-decoration-color:#000000;letter-spacing:normal;word-spacing:normal;text-transform:none;writing-mode:lr-tb;direction:ltr;text-orientation:mixed;dominant-baseline:auto;baseline-shift:baseline;text-anchor:start;white-space:normal;shape-padding:0;shape-margin:0;inline-size:0;clip-rule:nonzero;display:inline;overflow:visible;visibility:visible;isolation:auto;mix-blend-mode:normal;color-interpolation:sRGB;color-interpolation-filters:linearRGB;solid-color:#000000;solid-opacity:1;vector-effect:none;fill:#c00f0c;fill-opacity:1;fill-rule:nonzero;stroke:none;stroke-width:0.529167;stroke-linecap:round;stroke-linejoin:round;stroke-miterlimit:4;stroke-dasharray:none;stroke-dashoffset:0;stroke-opacity:1;color-rendering:auto;image-rendering:auto;shape-rendering:auto;text-rendering:auto;enable-background:accumulate;stop-color:#000000"
           id="path542"
           sodipodi:nodetypes="ccccc" />
        <path
           sodipodi:nodetypes="ccccccssccccc"
           d="m -50.409844,252.41357 -2.690962,1.37111 -0.02376,0.13798 c -7.9e-4,0.004 -0.0015,0.008 -0.0021,0.0119 -0.01519,0.12056 -0.123693,0.26781 -0.110403,0.46392 0.105398,-0.007 0.135445,0.0462 0,0.002 0.05118,1.09992 0.842617,1.90292 1.953872,1.90292 1.144079,0 2.077908,-0.8565 2.077908,-2.00059 1e-5,-0.001 1e-5,-0.003 0,-0.004 v -0.002 c -0.0114,-0.66532 -0.409893,-1.42981 -1.080037,-1.81642 -0.0026,-0.001 -0.0052,-0.003 -0.0078,-0.004 z"
           style="color:#000000;font-style:normal;font-variant:normal;font-weight:normal;font-stretch:normal;font-size:medium;line-height:normal;font-family:sans-serif;font-variant-ligatures:normal;font-variant-position:normal;font-variant-caps:normal;font-variant-numeric:normal;font-variant-alternates:normal;font-variant-east-asian:normal;font-feature-settings:normal;font-variation-settings:normal;text-indent:0;text-align:start;text-decoration:none;text-decoration-line:none;text-decoration-style:solid;text-decoration-color:#000000;letter-spacing:normal;word-spacing:normal;text-transform:none;writing-mode:lr-tb;direction:ltr;text-orientation:mixed;dominant-baseline:auto;baseline-shift:baseline;text-anchor:start;white-space:normal;shape-padding:0;shape-margin:0;inline-size:0;clip-rule:nonzero;display:inline;overflow:visible;visibility:visible;isolation:auto;mix-blend-mode:normal;color-interpolation:sRGB;color-interpolation-filters:linearRGB;solid-color:#000000;solid-opacity:1;vector-effect:none;fill:#c00f0c;fill-opacity:1;fill-rule:nonzero;stroke:none;stroke-width:0.529167;stroke-linecap:round;stroke-linejoin:round;stroke-miterlimit:4;stroke-dasharray:none;stroke-dashoffset:0;stroke-opacity:1;color-rendering:auto;image-rendering:auto;shape-rendering:auto;text-rendering:auto;enable-background:accumulate;stop-color:#000000"
           id="path580" />
        <path
           d="m -49.516235,260.34745 c 0,-1.14409 -0.622856,-2.07584 -1.76694,-2.07584 -1.464144,0.13847 -2.196116,1.22123 -2.021584,2.61844 l 2.907316,1.35134 c 0.710793,-0.37222 0.893422,-1.17026 0.881208,-1.89394 z"
           style="color:#000000;font-style:normal;font-variant:normal;font-weight:normal;font-stretch:normal;font-size:medium;line-height:normal;font-family:sans-serif;font-variant-ligatures:normal;font-variant-position:normal;font-variant-caps:normal;font-variant-numeric:normal;font-variant-alternates:normal;font-variant-east-asian:normal;font-feature-settings:normal;font-variation-settings:normal;text-indent:0;text-align:start;text-decoration:none;text-decoration-line:none;text-decoration-style:solid;text-decoration-color:#000000;letter-spacing:normal;word-spacing:normal;text-transform:none;writing-mode:lr-tb;direction:ltr;text-orientation:mixed;dominant-baseline:auto;baseline-shift:baseline;text-anchor:start;white-space:normal;shape-padding:0;shape-margin:0;inline-size:0;clip-rule:nonzero;display:inline;overflow:visible;visibility:visible;isolation:auto;mix-blend-mode:normal;color-interpolation:sRGB;color-interpolation-filters:linearRGB;solid-color:#000000;solid-opacity:1;vector-effect:none;fill:#c00f0c;fill-opacity:1;fill-rule:nonzero;stroke:none;stroke-width:0.529167;stroke-linecap:round;stroke-linejoin:round;stroke-miterlimit:4;stroke-dasharray:none;stroke-dashoffset:0;stroke-opacity:1;color-rendering:auto;image-rendering:auto;shape-rendering:auto;text-rendering:auto;enable-background:accumulate;stop-color:#000000"
           id="path602"
           sodipodi:nodetypes="ccccc" />
        <path
           d="m -54.82973,254.46771 -3.370336,1.56631 c -1.9e-5,0.18305 0.03203,0.37981 0.05893,0.53898 l 3.678843,-1.70997 c -0.121113,-0.15486 -0.229411,-0.26057 -0.367437,-0.39532 z"
           style="color:#000000;font-style:normal;font-variant:normal;font-weight:normal;font-stretch:normal;font-size:medium;line-height:normal;font-family:sans-serif;font-variant-ligatures:normal;font-variant-position:normal;font-variant-caps:normal;font-variant-numeric:normal;font-variant-alternates:normal;font-variant-east-asian:normal;font-feature-settings:normal;font-variation-settings:normal;text-indent:0;text-align:start;text-decoration:none;text-decoration-line:none;text-decoration-style:solid;text-decoration-color:#000000;letter-spacing:normal;word-spacing:normal;text-transform:none;writing-mode:lr-tb;direction:ltr;text-orientation:mixed;dominant-baseline:auto;baseline-shift:baseline;text-anchor:start;white-space:normal;shape-padding:0;shape-margin:0;inline-size:0;clip-rule:nonzero;display:inline;overflow:visible;visibility:visible;isolation:auto;mix-blend-mode:normal;color-interpolation:sRGB;color-interpolation-filters:linearRGB;solid-color:#000000;solid-opacity:1;vector-effect:none;fill:#a80f0c;fill-opacity:1;fill-rule:nonzero;stroke:none;stroke-width:0.529167;stroke-linecap:round;stroke-linejoin:round;stroke-miterlimit:4;stroke-dasharray:none;stroke-dashoffset:0;stroke-opacity:1;color-rendering:auto;image-rendering:auto;shape-rendering:auto;text-rendering:auto;enable-background:accumulate;stop-color:#000000"
           id="path1547"
           sodipodi:nodetypes="ccccc" />
        <path
           d="m -53.35802,254.35972 c 1.497862,-0.61352 3.038909,-0.099 3.714502,1.21233 0.273396,-0.35146 0.438216,-0.79102 0.438216,-1.26917 1e-5,-10e-4 1e-5,-0.003 0,-0.004 v -0.002 c -0.0509,-0.80088 -0.438303,-1.47693 -1.204542,-1.88331 -0.962251,0.44692 -1.924442,0.89398 -2.886646,1.341 -0.04366,0.20566 -0.05179,0.43155 -0.06153,0.60515 z"
           style="color:#000000;font-style:normal;font-variant:normal;font-weight:normal;font-stretch:normal;font-size:medium;line-height:normal;font-family:sans-serif;font-variant-ligatures:normal;font-variant-position:normal;font-variant-caps:normal;font-variant-numeric:normal;font-variant-alternates:normal;font-variant-east-asian:normal;font-feature-settings:normal;font-variation-settings:normal;text-indent:0;text-align:start;text-decoration:none;text-decoration-line:none;text-decoration-style:solid;text-decoration-color:#000000;letter-spacing:normal;word-spacing:normal;text-transform:none;writing-mode:lr-tb;direction:ltr;text-orientation:mixed;dominant-baseline:auto;baseline-shift:baseline;text-anchor:start;white-space:normal;shape-padding:0;shape-margin:0;inline-size:0;clip-rule:nonzero;display:inline;overflow:visible;visibility:visible;isolation:auto;mix-blend-mode:normal;color-interpolation:sRGB;color-interpolation-filters:linearRGB;solid-color:#000000;solid-opacity:1;vector-effect:none;fill:#a80f0c;fill-opacity:1;fill-rule:nonzero;stroke:none;stroke-width:0.529167;stroke-linecap:round;stroke-linejoin:round;stroke-miterlimit:4;stroke-dasharray:none;stroke-dashoffset:0;stroke-opacity:1;color-rendering:auto;image-rendering:auto;shape-rendering:auto;text-rendering:auto;enable-background:accumulate;stop-color:#000000"
           id="path1553"
           sodipodi:nodetypes="ccsccccc" />
        <path
           d="m -46.203112,265.07997 c 0.956932,-2.29662 1.435055,-4.67178 1.435055,-7.04867 0,-2.37687 -0.478121,-4.75411 -1.435055,-7.05073 -0.198765,-0.39538 -0.221474,-0.74268 -0.823973,-0.88318 -0.819174,-0.19771 -1.571269,0.0872 -2.07226,1.01396 1.238352,-0.3178 1.852348,0.24203 2.138921,0.92758 0.956935,2.29662 1.435055,4.67387 1.435055,7.05074 0,2.30106 -0.452408,4.59986 -1.349271,6.828 0.480985,-0.15184 0.482598,-0.46903 0.671528,-0.8377 z"
           style="color:#000000;font-style:normal;font-variant:normal;font-weight:normal;font-stretch:normal;font-size:medium;line-height:normal;font-family:sans-serif;font-variant-ligatures:normal;font-variant-position:normal;font-variant-caps:normal;font-variant-numeric:normal;font-variant-alternates:normal;font-variant-east-asian:normal;font-feature-settings:normal;font-variation-settings:normal;text-indent:0;text-align:start;text-decoration:none;text-decoration-line:none;text-decoration-style:solid;text-decoration-color:#000000;letter-spacing:normal;word-spacing:normal;text-transform:none;writing-mode:lr-tb;direction:ltr;text-orientation:mixed;dominant-baseline:auto;baseline-shift:baseline;text-anchor:start;white-space:normal;shape-padding:0;shape-margin:0;inline-size:0;clip-rule:nonzero;display:inline;overflow:visible;visibility:visible;isolation:auto;mix-blend-mode:normal;color-interpolation:sRGB;color-interpolation-filters:linearRGB;solid-color:#000000;solid-opacity:1;vector-effect:none;fill:#c75410;fill-opacity:1;fill-rule:nonzero;stroke:none;stroke-width:0.529167;stroke-linecap:round;stroke-linejoin:round;stroke-miterlimit:4;stroke-dasharray:none;stroke-dashoffset:0;stroke-opacity:1;color-rendering:auto;image-rendering:auto;shape-rendering:auto;text-rendering:auto;enable-background:accumulate;stop-color:#000000"
           id="path1558"
           sodipodi:nodetypes="csccccscc" />
        <path
           id="path464"
           style="color:#000000;font-style:normal;font-variant:normal;font-weight:normal;font-stretch:normal;font-size:medium;line-height:normal;font-family:sans-serif;font-variant-ligatures:normal;font-variant-position:normal;font-variant-caps:normal;font-variant-numeric:normal;font-variant-alternates:normal;font-variant-east-asian:normal;font-feature-settings:normal;font-variation-settings:normal;text-indent:0;text-align:start;text-decoration:none;text-decoration-line:none;text-decoration-style:solid;text-decoration-color:#000000;letter-spacing:normal;word-spacing:normal;text-transform:none;writing-mode:lr-tb;direction:ltr;text-orientation:mixed;dominant-baseline:auto;baseline-shift:baseline;text-anchor:start;white-space:normal;shape-padding:0;shape-margin:0;inline-size:0;clip-rule:nonzero;display:inline;overflow:visible;visibility:visible;opacity:1;isolation:auto;mix-blend-mode:normal;color-interpolation:sRGB;color-interpolation-filters:linearRGB;solid-color:#000000;solid-opacity:1;vector-effect:none;fill:#000000;fill-opacity:1;fill-rule:nonzero;stroke:none;stroke-width:0.529167;stroke-linecap:round;stroke-linejoin:round;stroke-miterlimit:4;stroke-dasharray:none;stroke-dashoffset:0;stroke-opacity:1;color-rendering:auto;image-rendering:auto;shape-rendering:auto;text-rendering:auto;enable-background:accumulate;stop-color:#000000;stop-opacity:1"
           d="m -49.093722,251.06288 4e-5,-1e-5 h 3.7e-5 c -0.04641,0.24567 -0.04631,0.50154 -0.01344,0.74518 -3.413837,1.58624 -6.824863,3.17167 -10.238653,4.75836 -0.386283,0.17952 -0.715092,0.46502 -0.947229,0.82217 -7.94e-4,0.001 -0.0013,0.003 -0.0021,0.004 -0.207013,0.33247 -0.314815,0.71678 -0.314193,1.10794 -0.0013,0.0101 -0.0019,0.0203 -0.0021,0.0305 v 1.51205 c 0,0.64354 0.528492,1.16996 1.172023,1.16996 0.249372,0 0.449709,-0.13117 0.64027,-0.26562 v 0.90796 c 0,0.64354 0.528487,1.16995 1.172022,1.16995 0.643533,0 1.169953,-0.52641 1.169953,-1.16995 l 0.0011,-1.02113 7.348906,3.4184 c -0.03287,0.24363 -0.03298,0.4995 0.01344,0.74517 0.278691,1.00023 1.198875,1.18494 2.066542,0.96687 0.454914,-0.12012 0.882938,-0.39956 1.116727,-0.86713 0.003,-0.006 0.0057,-0.0116 0.0083,-0.0176 1.866823,-4.69992 1.748104,-9.81677 0,-14.09939 -0.875607,-1.42379 -2.851558,-1.2377 -3.191524,0.0822 z m 2.704823,0.13642 c 1.812202,4.55829 1.691703,9.51447 0,13.66583 -0.157687,0.31126 -0.433552,0.49788 -0.775147,0.58808 -0.621687,0.11041 -1.286682,0.0643 -1.410251,-0.55294 -0.0547,-0.28955 -0.02281,-0.65123 0.06253,-0.89607 0.02357,-0.0676 0.04339,-0.13586 0.06615,-0.2036 0.38064,0.13011 0.814268,0.16947 1.232482,0.0961 0.144259,-0.0252 0.240612,-0.16277 0.214974,-0.30695 -0.02545,-0.14381 -0.162613,-0.2398 -0.30644,-0.21446 -0.325216,0.057 -0.681382,0.0183 -0.97617,-0.0816 0.129175,-0.43191 0.259284,-0.92842 0.351454,-1.33635 0.376732,0.14672 0.813602,0.19799 1.239718,0.13849 0.145318,-0.0195 0.247063,-0.15347 0.226859,-0.29869 -0.02053,-0.14448 -0.154172,-0.24506 -0.29869,-0.22479 -0.363059,0.0507 -0.759405,-0.0127 -1.057818,-0.14521 0.07664,-0.39563 0.142537,-0.79219 0.192239,-1.1896 0.355872,0.0856 0.744103,0.0963 1.115176,0.0145 0.142198,-0.0314 0.232272,-0.17184 0.201538,-0.31419 -0.03069,-0.14307 -0.171696,-0.23406 -0.314708,-0.20309 -0.306708,0.0676 -0.648595,0.0467 -0.944647,-0.0346 0.118271,-1.23408 0.09391,-2.48346 -0.03049,-3.62562 0.29791,-0.0873 0.646065,-0.11344 0.95963,-0.047 0.142838,0.0307 0.283491,-0.0603 0.314193,-0.20309 0.03065,-0.14284 -0.06026,-0.28349 -0.203089,-0.3142 -0.380053,-0.0805 -0.776875,-0.0642 -1.137915,0.0295 -0.05558,-0.39293 -0.122676,-0.78514 -0.204636,-1.17616 0.294163,-0.14407 0.699627,-0.21891 1.075385,-0.17363 0.145683,0.0176 0.277842,-0.0868 0.294556,-0.23254 0.01664,-0.14512 -0.08744,-0.27627 -0.232545,-0.29301 -0.436224,-0.0526 -0.881341,0.009 -1.258837,0.17053 -0.107458,-0.44632 -0.232085,-0.8909 -0.374137,-1.33325 0.295756,-0.11802 0.672658,-0.17039 1.018027,-0.11885 0.144388,0.0216 0.278979,-0.0779 0.300754,-0.22221 0.02156,-0.14457 -0.07815,-0.27924 -0.222724,-0.30076 -0.430847,-0.0643 -0.874498,-0.0122 -1.25677,0.13591 -0.07083,-0.24155 -0.09643,-0.56652 -0.04599,-0.83354 0.292158,-0.98705 1.770629,-0.74924 2.185398,0.0372 h -2.7e-5 z m -2.816368,3.10368 c 10e-6,-0.001 10e-6,-0.003 0,-0.004 v -0.002 c -0.009,-0.52853 -0.265115,-1.11664 -0.704866,-1.53117 l 0.931209,-0.43253 c 1.101524,3.44602 1.214207,6.92524 0.374655,10.15907 l -1.30638,-0.6072 c 0.509794,-0.42862 0.69251,-0.9968 0.698963,-1.83913 0.0065,-0.84233 -0.927367,-1.77408 -2.071452,-1.77408 -1.047536,0.0258 -1.984113,0.78658 -2.074823,2.01021 l -3.251481,-1.51206 c -0.174913,-0.08 -0.374028,0.0475 -0.374655,0.23978 l -0.0021,2.84582 c 0,0.35756 -0.283228,0.64079 -0.640786,0.64079 -0.357561,0 -0.64234,-0.28323 -0.64234,-0.64079 v -1.81229 -1.01957 c 0,-0.35313 -0.529682,-0.35313 -0.529682,0 v 1.01957 c 0,0.35756 -0.28271,0.64027 -0.640271,0.64027 -0.357563,0 -0.642855,-0.28271 -0.642855,-0.64027 v -1.50016 c 9e-5,-0.004 9e-5,-0.008 0,-0.0119 7e-6,-10e-4 7e-6,-0.002 0,-0.004 -0.0058,-0.30028 0.07806,-0.59631 0.236161,-0.85162 0.177888,-0.27221 0.428004,-0.49184 0.722953,-0.62891 l 0.984951,-0.45785 c 0.21517,0.91769 1.039982,1.60455 2.021068,1.60455 1.144082,0 2.077908,-0.93433 2.077908,-2.07842 0.02029,-0.44188 -0.180478,-0.92032 -0.411888,-1.2392 l 1.092957,-0.50798 c 0.154043,1.35488 1.134525,1.98286 2.176732,1.99679 1.04221,0.0139 1.976039,-0.91782 1.976039,-2.06191 z m -1.23765,-1.28932 c 0.412549,0.30172 0.701358,0.88739 0.708483,1.29139 -0.0011,0.85719 -0.691293,1.54668 -1.548741,1.54668 -1.048801,-0.0805 -1.574697,-0.89333 -1.531689,-1.73633 z m -0.04341,0.73845 c -0.134369,-0.14462 -0.25504,-0.1237 -0.371039,-0.0548 -0.117906,0.0871 -0.142473,0.25354 -0.05478,0.37103 0.07272,0.0978 0.113443,0.22744 0.11524,0.30076 -0.0016,0.2715 -0.214329,0.48628 -0.486276,0.48628 -0.215569,0 -0.39438,-0.13665 -0.460954,-0.32608 -0.04829,-0.13834 -0.199813,-0.21109 -0.337963,-0.16227 -0.138337,0.0483 -0.211087,0.19982 -0.162264,0.33797 0.139526,0.39702 0.519835,0.68006 0.961181,0.68006 0.559009,0 1.017512,-0.45901 1.015771,-0.84863 -0.0019,-0.38961 -0.0826,-0.60093 -0.218919,-0.78435 z m -4.458645,1.35341 c 0.234043,0.27095 0.376722,0.62234 0.376722,1.00976 0,0.8581 -0.690642,1.54874 -1.548741,1.54874 -0.774521,0 -1.411523,-0.56339 -1.528591,-1.30328 z m -0.46147,0.89245 c -0.146325,-5.8e-4 -0.26533,0.11774 -0.265616,0.26407 0,0.24897 -0.195961,0.44493 -0.444933,0.44493 -0.147998,0 -0.274199,-0.0703 -0.355534,-0.17932 -0.08778,-0.11722 -0.254085,-0.14085 -0.371039,-0.0527 -0.116594,0.087 -0.141065,0.25184 -0.05478,0.36897 0.177459,0.2378 0.463362,0.39275 0.781349,0.39275 0.534956,0 0.974617,-0.43967 0.974617,-0.97462 -2.65e-4,-0.14572 -0.118346,-0.26379 -0.264068,-0.26407 z m 6.23683,0.11731 c -0.167005,4.5e-4 -0.301956,0.13633 -0.301273,0.30334 7.93e-4,0.16599 0.135276,0.3003 0.301273,0.30075 0.166804,6.9e-4 0.302596,-0.13395 0.303339,-0.30075 7.94e-4,-0.16782 -0.135525,-0.30403 -0.303339,-0.30334 z m -3.927409,0.30179 c -0.167005,4.5e-4 -0.301956,0.13633 -0.301273,0.30334 5.29e-4,0.1662 0.135075,0.30081 0.301273,0.30127 0.167005,6.9e-4 0.302881,-0.13427 0.303339,-0.30127 7.94e-4,-0.16782 -0.135525,-0.30403 -0.303339,-0.30334 z m 2.1146,0.60358 c -0.166603,7.4e-4 -0.301154,0.13622 -0.300757,0.30282 5.29e-4,0.166 0.13476,0.30053 0.300757,0.30128 0.167005,6.8e-4 0.302882,-0.13427 0.303339,-0.30128 5.3e-4,-0.16761 -0.135728,-0.30351 -0.303339,-0.30282 z m 2.114598,1.5105 c -0.166804,7.4e-4 -0.301437,0.13654 -0.300755,0.30334 7.94e-4,0.1658 0.134959,0.30002 0.300755,0.30076 0.166804,6.9e-4 0.302598,-0.13395 0.303342,-0.30076 7.94e-4,-0.16781 -0.135528,-0.30403 -0.303342,-0.30334 z m -5.43791,10e-4 c -0.166804,7.4e-4 -0.30144,0.13654 -0.300757,0.30334 7.93e-4,0.1658 0.134961,0.30002 0.300757,0.30076 0.166804,6.9e-4 0.302596,-0.13395 0.303339,-0.30076 7.94e-4,-0.16781 -0.135525,-0.30402 -0.303339,-0.30334 z m 4.571296,1.81384 c -0.0071,0.40398 -0.295979,0.98913 -0.708483,1.29088 l -2.371947,-1.10277 c -0.130485,-1.29531 0.908796,-1.71488 1.543436,-1.73323 0.845699,0 1.535946,0.68793 1.536994,1.54512 z m -2.42569,-0.36535 c -0.04714,0.13858 0.02719,0.28909 0.165881,0.3359 0.138576,0.0471 0.289092,-0.0272 0.335897,-0.16588 0.05266,-0.15526 0.198704,-0.26769 0.375171,-0.26769 0.220464,0 0.39103,0.17274 0.392739,0.39274 -0.0016,0.0562 -0.03535,0.16734 -0.09612,0.24805 -0.08814,0.11695 -0.06452,0.28326 0.05271,0.37104 0.117041,0.0885 0.283745,0.0648 0.371554,-0.0527 0.125812,-0.16709 0.199861,-0.35786 0.201475,-0.71512 0.0016,-0.35726 -0.414816,-0.77316 -0.870706,-0.77316 -0.455888,0 -0.804566,0.26109 -0.928603,0.62683 z m -4.29483,-0.555 c 2.876124,1.33831 4.955916,2.30323 7.70599,3.58117 -0.07145,0.24084 -0.147982,0.48125 -0.22996,0.72089 l -7.476546,-3.47731 z"
           sodipodi:nodetypes="cccccccccsscssccccccccccsccccccccccccccccccccccccccccccccccccccccscccccccsscsssssccccccsccccccccccccsscccscccssscccscccscccccccccccccccccccccccccccscccccccccccscsccccccccc" />
      </g>
    </g>
  </g>
</svg>
